<?xml version="1.0" encoding="UTF-8"?>
<svg xmlns="http://www.w3.org/2000/svg" xmlns:xlink="http://www.w3.org/1999/xlink" width="159px" height="66px" viewBox="0 0 159 66" version="1.1">
<g id="surface1">
<path style=" stroke:none;fill-rule:nonzero;fill:rgb(87.843137%,18.039216%,23.529412%);fill-opacity:1;" d="M 150.40625 3.699219 C 150.566406 3.695312 150.726562 3.691406 150.890625 3.6875 C 151.296875 3.730469 151.296875 3.730469 151.5 3.886719 C 151.695312 4.132812 151.75 4.308594 151.8125 4.617188 C 151.84375 4.765625 151.84375 4.765625 151.875 4.917969 C 151.894531 5.023438 151.914062 5.128906 151.933594 5.234375 C 151.957031 5.335938 151.976562 5.4375 152 5.542969 C 152.117188 6.136719 152.207031 6.726562 152.261719 7.332031 C 152.285156 7.582031 152.285156 7.582031 152.359375 7.824219 C 152.742188 9.488281 152.253906 11.5625 151.796875 13.175781 C 151.773438 13.253906 151.75 13.335938 151.726562 13.417969 C 151.070312 15.722656 149.839844 18.160156 148.113281 19.839844 C 147.90625 20.027344 147.90625 20.027344 147.695312 20.382812 C 147.691406 20.640625 147.691406 20.640625 147.742188 20.925781 C 147.835938 21.714844 147.847656 22.496094 147.851562 23.289062 C 147.855469 23.503906 147.855469 23.503906 147.859375 23.71875 C 147.867188 25.722656 147.28125 27.449219 145.886719 28.910156 C 144.445312 30.328125 144.445312 30.328125 144.09375 30.328125 C 144.09375 30.410156 144.09375 30.492188 144.09375 30.578125 C 143.90625 30.746094 143.90625 30.746094 143.644531 30.9375 C 143.546875 31.007812 143.449219 31.082031 143.347656 31.152344 C 143.242188 31.230469 143.136719 31.304688 143.03125 31.382812 C 142.921875 31.460938 142.816406 31.539062 142.707031 31.621094 C 139.660156 33.824219 139.660156 33.824219 138.253906 34.429688 C 138.171875 34.386719 138.089844 34.347656 138.007812 34.304688 C 138.199219 33.902344 138.417969 33.523438 138.644531 33.140625 C 139.839844 31.070312 140.378906 29.0625 140.464844 26.679688 C 140.492188 26.226562 140.492188 26.226562 140.617188 25.976562 C 140.527344 26.023438 140.441406 26.066406 140.351562 26.113281 C 139.957031 26.320312 139.558594 26.519531 139.164062 26.722656 C 139.027344 26.792969 138.890625 26.867188 138.75 26.9375 C 138.550781 27.039062 138.550781 27.039062 138.347656 27.144531 C 138.226562 27.207031 138.105469 27.269531 137.980469 27.332031 C 137.617188 27.476562 137.398438 27.519531 137.011719 27.46875 C 136.773438 27.339844 136.773438 27.339844 136.546875 27.160156 C 136.421875 27.058594 136.421875 27.058594 136.289062 26.957031 C 136.199219 26.886719 136.113281 26.8125 136.019531 26.738281 C 135.832031 26.589844 135.640625 26.441406 135.453125 26.292969 C 135.359375 26.21875 135.265625 26.144531 135.167969 26.066406 C 134.863281 25.820312 134.550781 25.582031 134.238281 25.34375 C 133.921875 25.101562 133.605469 24.855469 133.285156 24.609375 C 133.164062 24.515625 133.042969 24.421875 132.914062 24.324219 C 132.800781 24.238281 132.6875 24.148438 132.574219 24.058594 C 132.472656 23.980469 132.375 23.90625 132.273438 23.824219 C 132.042969 23.617188 132.042969 23.617188 131.921875 23.242188 C 131.910156 22.308594 132.183594 21.414062 132.4375 20.523438 C 132.550781 20.164062 132.550781 20.164062 132.542969 19.886719 C 129.636719 20.339844 127.039062 22.101562 125.210938 24.363281 C 124.929688 23.511719 125.308594 22.628906 125.601562 21.820312 C 125.640625 21.710938 125.679688 21.601562 125.71875 21.492188 C 125.839844 21.164062 125.960938 20.835938 126.082031 20.507812 C 126.117188 20.417969 126.148438 20.328125 126.183594 20.234375 C 126.625 19.070312 127.152344 17.949219 127.703125 16.835938 C 127.765625 16.707031 127.828125 16.582031 127.890625 16.453125 C 128.988281 14.261719 130.558594 12.890625 132.878906 12.09375 C 134.0625 11.714844 135.277344 11.535156 136.515625 11.558594 C 136.5625 11.457031 136.5625 11.457031 136.609375 11.355469 C 138.464844 7.882812 142.304688 5.53125 145.953125 4.40625 C 146.773438 4.164062 147.59375 3.988281 148.441406 3.851562 C 148.574219 3.828125 148.574219 3.828125 148.710938 3.804688 C 149.269531 3.714844 149.839844 3.707031 150.40625 3.699219 Z M 135.523438 11.683594 C 135.523438 11.726562 135.523438 11.765625 135.523438 11.808594 C 135.726562 11.808594 135.933594 11.808594 136.144531 11.808594 C 136.144531 11.765625 136.144531 11.726562 136.144531 11.683594 C 135.9375 11.683594 135.734375 11.683594 135.523438 11.683594 Z M 132.042969 22.496094 C 132.167969 22.746094 132.167969 22.746094 132.167969 22.746094 Z M 140.367188 29.085938 C 140.492188 29.332031 140.492188 29.332031 140.492188 29.332031 Z M 140.367188 29.085938 "/>
<path style=" stroke:none;fill-rule:nonzero;fill:rgb(45.490196%,46.666667%,48.235294%);fill-opacity:1;" d="M 15.929688 24.8125 C 16.0625 24.8125 16.195312 24.8125 16.328125 24.8125 C 17.519531 24.828125 18.609375 25.035156 19.75 25.355469 C 19.917969 25.398438 20.082031 25.441406 20.246094 25.480469 C 20.246094 25.5625 20.246094 25.644531 20.246094 25.730469 C 20.453125 25.730469 20.65625 25.730469 20.867188 25.730469 C 20.867188 25.8125 20.867188 25.894531 20.867188 25.976562 C 21.003906 25.996094 21.003906 25.996094 21.140625 26.015625 C 21.527344 26.109375 21.769531 26.265625 22.109375 26.472656 C 22.292969 26.554688 22.476562 26.632812 22.664062 26.707031 C 23.195312 26.945312 23.582031 27.160156 23.972656 27.59375 C 24.019531 28.066406 24.019531 28.066406 23.972656 28.464844 C 23.199219 28.570312 22.746094 28.214844 22.125 27.804688 C 21.226562 27.214844 20.386719 26.828125 19.355469 26.519531 C 19.253906 26.492188 19.15625 26.460938 19.054688 26.429688 C 18.355469 26.242188 17.703125 26.199219 16.980469 26.195312 C 16.828125 26.191406 16.828125 26.191406 16.671875 26.1875 C 15.722656 26.179688 15 26.445312 14.183594 26.925781 C 13.878906 27.101562 13.628906 27.230469 13.292969 27.34375 C 13.160156 27.570312 13.160156 27.570312 13.042969 27.84375 C 12.925781 28.023438 12.8125 28.203125 12.695312 28.386719 C 11.832031 29.828125 11.410156 31.300781 11.769531 32.96875 C 12.136719 34.140625 12.136719 34.140625 12.917969 35.050781 C 13.316406 35.105469 13.316406 35.105469 13.757812 35.074219 C 14.476562 35.054688 15.175781 35.0625 15.890625 35.113281 C 15.980469 35.117188 16.066406 35.125 16.15625 35.132812 C 16.363281 35.144531 16.566406 35.160156 16.769531 35.175781 C 16.804688 35.09375 16.839844 35.015625 16.878906 34.933594 C 17.019531 34.679688 17.019531 34.679688 17.265625 34.554688 C 17.328125 34.367188 17.328125 34.367188 17.390625 34.179688 C 16.871094 34.105469 16.386719 34.050781 15.859375 34.070312 C 15.402344 34.054688 15.402344 34.054688 15.226562 33.871094 C 15.039062 33.652344 15.039062 33.652344 14.722656 33.648438 C 14.554688 33.652344 14.554688 33.652344 14.386719 33.660156 C 14.273438 33.664062 14.164062 33.667969 14.046875 33.671875 C 13.917969 33.675781 13.917969 33.675781 13.789062 33.683594 C 13.757812 33.484375 13.730469 33.285156 13.703125 33.085938 C 13.6875 32.972656 13.671875 32.863281 13.65625 32.75 C 13.664062 32.441406 13.664062 32.441406 13.820312 32.222656 C 14.367188 31.832031 15.121094 31.769531 15.777344 31.820312 C 15.816406 31.859375 15.859375 31.902344 15.898438 31.945312 C 15.949219 31.890625 15.996094 31.835938 16.046875 31.78125 C 16.308594 31.539062 16.578125 31.371094 16.886719 31.191406 C 16.992188 31.128906 17.097656 31.0625 17.207031 31 C 17.636719 30.753906 18.023438 30.554688 18.507812 30.453125 C 18.386719 30.144531 18.386719 30.144531 18.261719 29.832031 C 18.578125 29.511719 18.816406 29.429688 19.253906 29.417969 C 19.640625 29.433594 19.917969 29.488281 20.246094 29.707031 C 20.371094 29.625 20.492188 29.542969 20.621094 29.457031 C 21.574219 29.347656 22.324219 29.375 23.105469 29.953125 C 23.105469 30.035156 23.105469 30.117188 23.105469 30.203125 C 23.191406 30.210938 23.277344 30.21875 23.367188 30.226562 C 26.925781 30.546875 26.925781 30.546875 27.824219 31.445312 C 27.828125 31.652344 27.832031 31.859375 27.824219 32.066406 C 27.703125 32.109375 27.578125 32.148438 27.453125 32.191406 C 27.410156 32.398438 27.371094 32.601562 27.328125 32.8125 C 27.019531 32.875 27.019531 32.875 26.707031 32.9375 C 26.6875 33.066406 26.671875 33.195312 26.652344 33.328125 C 26.59375 33.738281 26.527344 34.144531 26.457031 34.554688 C 26.253906 34.554688 26.046875 34.554688 25.835938 34.554688 C 25.820312 34.648438 25.804688 34.746094 25.789062 34.84375 C 25.765625 34.96875 25.742188 35.09375 25.722656 35.222656 C 25.699219 35.347656 25.679688 35.46875 25.65625 35.597656 C 25.589844 35.921875 25.589844 35.921875 25.464844 36.167969 C 25.449219 36.335938 25.4375 36.5 25.429688 36.664062 C 25.425781 36.761719 25.421875 36.863281 25.414062 36.960938 C 25.410156 37.066406 25.40625 37.167969 25.402344 37.273438 C 25.394531 37.472656 25.386719 37.675781 25.375 37.878906 C 25.371094 37.96875 25.367188 38.058594 25.363281 38.148438 C 25.339844 38.40625 25.339844 38.40625 25.273438 38.671875 C 25.203125 38.957031 25.25 39.121094 25.332031 39.402344 C 25.441406 39.769531 25.464844 39.992188 25.464844 40.394531 C 25.34375 40.394531 25.21875 40.394531 25.09375 40.394531 C 25.09375 40.3125 25.09375 40.230469 25.09375 40.148438 C 24.96875 40.148438 24.847656 40.148438 24.71875 40.148438 C 24.84375 40.332031 24.84375 40.332031 24.96875 40.519531 C 25.019531 40.882812 25.007812 41.25 25.007812 41.613281 C 25.007812 41.714844 25.011719 41.8125 25.011719 41.914062 C 25.011719 42.539062 24.929688 42.957031 24.59375 43.503906 C 24.511719 43.503906 24.429688 43.503906 24.347656 43.503906 C 24.351562 43.582031 24.351562 43.660156 24.355469 43.742188 C 24.371094 44.421875 24.320312 44.972656 24.097656 45.617188 C 23.976562 45.617188 23.851562 45.617188 23.726562 45.617188 C 23.476562 45.367188 23.476562 45.367188 23.449219 45.03125 C 23.460938 44.183594 23.5 43.351562 23.601562 42.507812 C 23.601562 42.46875 23.601562 42.425781 23.601562 42.382812 C 23.40625 42.742188 23.296875 43.070312 23.214844 43.472656 C 23.191406 43.570312 23.171875 43.671875 23.148438 43.773438 C 23.136719 43.847656 23.121094 43.921875 23.105469 44 C 22.777344 43.957031 22.449219 43.917969 22.109375 43.875 C 21.957031 44.136719 21.957031 44.136719 22 44.515625 C 21.984375 45.046875 21.863281 45.425781 21.675781 45.917969 C 21.648438 45.996094 21.617188 46.078125 21.585938 46.160156 C 21.515625 46.351562 21.441406 46.542969 21.367188 46.734375 C 21.242188 46.734375 21.121094 46.734375 20.992188 46.734375 C 20.871094 46.449219 20.746094 46.160156 20.621094 45.863281 C 20.578125 45.863281 20.539062 45.863281 20.496094 45.863281 C 20.355469 43.023438 20.355469 43.023438 20.378906 41.894531 C 20.390625 41.628906 20.390625 41.628906 20.246094 41.390625 C 20.289062 41.308594 20.328125 41.226562 20.371094 41.140625 C 20.308594 41.171875 20.246094 41.203125 20.183594 41.234375 C 19.613281 41.5 19.050781 41.703125 18.445312 41.878906 C 17.738281 42.089844 17.148438 42.378906 16.519531 42.757812 C 16.113281 42.992188 15.742188 43.074219 15.277344 43.144531 C 15.152344 43.167969 15.023438 43.1875 14.890625 43.207031 C 14.109375 43.308594 13.808594 43.152344 13.167969 42.757812 C 13.167969 42.675781 13.167969 42.59375 13.167969 42.507812 C 13.042969 42.507812 12.921875 42.507812 12.792969 42.507812 C 12.792969 42.589844 12.792969 42.671875 12.792969 42.757812 C 12.0625 42.566406 11.613281 42.417969 11.179688 41.761719 C 10.757812 41.3125 10.289062 40.964844 9.792969 40.605469 C 9.679688 40.5 9.679688 40.5 9.566406 40.394531 C 9.566406 40.273438 9.566406 40.148438 9.566406 40.023438 C 9.484375 40.023438 9.402344 40.023438 9.316406 40.023438 C 7.550781 37.554688 7.105469 35.085938 7.546875 32.082031 C 7.664062 31.519531 7.851562 31 8.082031 30.472656 C 8.214844 30.1875 8.214844 30.1875 8.292969 29.808594 C 8.496094 29.347656 8.796875 29.140625 9.183594 28.824219 C 9.449219 28.578125 9.617188 28.339844 9.804688 28.027344 C 10.230469 27.347656 10.835938 26.832031 11.550781 26.472656 C 11.6875 26.328125 11.6875 26.328125 11.828125 26.179688 C 12.195312 25.832031 12.511719 25.660156 12.972656 25.457031 C 13.109375 25.394531 13.246094 25.335938 13.382812 25.273438 C 13.515625 25.21875 13.652344 25.164062 13.789062 25.105469 C 13.953125 25.035156 13.953125 25.035156 14.125 24.964844 C 14.726562 24.808594 15.3125 24.8125 15.929688 24.8125 Z M 20.621094 29.707031 C 20.621094 29.789062 20.621094 29.871094 20.621094 29.953125 C 20.742188 29.914062 20.867188 29.871094 20.992188 29.832031 C 20.871094 29.789062 20.746094 29.75 20.621094 29.707031 Z M 23.726562 30.453125 C 23.726562 30.492188 23.726562 30.535156 23.726562 30.578125 C 23.972656 30.578125 24.21875 30.578125 24.472656 30.578125 C 24.472656 30.535156 24.472656 30.496094 24.472656 30.453125 C 24.226562 30.453125 23.980469 30.453125 23.726562 30.453125 Z M 13.789062 32.9375 C 13.828125 33.019531 13.871094 33.101562 13.914062 33.1875 C 13.953125 33.105469 13.996094 33.023438 14.035156 32.9375 C 13.953125 32.9375 13.871094 32.9375 13.789062 32.9375 Z M 17.515625 34.304688 C 17.640625 34.554688 17.640625 34.554688 17.640625 34.554688 Z M 16.894531 34.925781 C 17.019531 35.175781 17.019531 35.175781 17.019531 35.175781 Z M 23.726562 41.761719 C 23.851562 42.011719 23.851562 42.011719 23.851562 42.011719 Z M 20.496094 43.253906 C 20.621094 43.628906 20.621094 43.628906 20.621094 43.628906 Z M 20.496094 43.253906 "/>
<path style=" stroke:none;fill-rule:nonzero;fill:rgb(87.843137%,18.039216%,23.529412%);fill-opacity:1;" d="M 66.703125 27.808594 C 66.929688 27.808594 66.929688 27.808594 67.15625 27.808594 C 67.3125 27.808594 67.46875 27.808594 67.628906 27.8125 C 67.863281 27.808594 67.863281 27.808594 68.101562 27.808594 C 68.25 27.808594 68.398438 27.808594 68.554688 27.808594 C 68.691406 27.808594 68.828125 27.808594 68.96875 27.808594 C 69.3125 27.84375 69.3125 27.84375 69.6875 28.089844 C 69.796875 28.308594 69.796875 28.308594 69.890625 28.570312 C 69.941406 28.71875 69.941406 28.71875 69.996094 28.871094 C 70.035156 28.980469 70.070312 29.089844 70.109375 29.203125 C 70.148438 29.316406 70.191406 29.429688 70.230469 29.546875 C 70.359375 29.917969 70.488281 30.289062 70.617188 30.660156 C 70.707031 30.917969 70.796875 31.171875 70.886719 31.425781 C 71.066406 31.9375 71.242188 32.449219 71.421875 32.957031 C 71.644531 33.605469 71.875 34.246094 72.105469 34.890625 C 72.136719 34.980469 72.167969 35.070312 72.203125 35.160156 C 72.320312 35.496094 72.441406 35.828125 72.5625 36.164062 C 72.640625 36.382812 72.71875 36.605469 72.800781 36.828125 C 72.867188 37.011719 72.867188 37.011719 72.933594 37.203125 C 73.035156 37.519531 73.105469 37.828125 73.164062 38.15625 C 73.246094 38.15625 73.328125 38.15625 73.414062 38.15625 C 73.414062 38.03125 73.414062 37.90625 73.410156 37.777344 C 73.40625 36.597656 73.402344 35.414062 73.402344 34.234375 C 73.398438 33.625 73.398438 33.019531 73.394531 32.410156 C 73.390625 31.824219 73.390625 31.238281 73.390625 30.652344 C 73.390625 30.429688 73.386719 30.207031 73.386719 29.980469 C 73.386719 29.667969 73.386719 29.355469 73.386719 29.042969 C 73.382812 28.949219 73.382812 28.855469 73.382812 28.761719 C 73.386719 28.117188 73.386719 28.117188 73.660156 27.84375 C 73.925781 27.8125 73.925781 27.8125 74.246094 27.8125 C 74.363281 27.8125 74.480469 27.8125 74.597656 27.8125 C 74.78125 27.816406 74.78125 27.816406 74.964844 27.820312 C 75.085938 27.820312 75.207031 27.820312 75.332031 27.820312 C 76.234375 27.824219 76.234375 27.824219 76.519531 27.964844 C 76.519531 33.257812 76.519531 38.546875 76.519531 44 C 75.289062 44 74.058594 44 72.792969 44 C 72.234375 42.886719 72.234375 42.886719 72.109375 42.46875 C 71.972656 42.042969 71.828125 41.625 71.675781 41.203125 C 71.527344 40.804688 71.386719 40.410156 71.253906 40.007812 C 70.984375 39.1875 70.695312 38.378906 70.40625 37.566406 C 70.25 37.121094 70.09375 36.675781 69.933594 36.230469 C 69.8125 35.882812 69.6875 35.535156 69.5625 35.175781 C 69.316406 34.476562 69.070312 33.78125 68.816406 33.0625 C 68.816406 36.671875 68.816406 40.28125 68.816406 44 C 67.832031 44 66.847656 44 65.835938 44 C 65.679688 43.6875 65.695312 43.476562 65.695312 43.128906 C 65.695312 42.996094 65.695312 42.863281 65.695312 42.730469 C 65.695312 42.585938 65.695312 42.4375 65.695312 42.289062 C 65.691406 42.136719 65.691406 41.984375 65.691406 41.828125 C 65.691406 41.410156 65.691406 40.992188 65.691406 40.570312 C 65.691406 40.222656 65.691406 39.875 65.691406 39.523438 C 65.6875 38.703125 65.6875 37.878906 65.6875 37.054688 C 65.6875 36.203125 65.6875 35.355469 65.683594 34.503906 C 65.683594 33.773438 65.683594 33.046875 65.683594 32.316406 C 65.683594 31.882812 65.683594 31.445312 65.683594 31.007812 C 65.679688 30.523438 65.679688 30.039062 65.679688 29.550781 C 65.679688 29.335938 65.679688 29.335938 65.679688 29.113281 C 65.679688 28.914062 65.679688 28.914062 65.679688 28.714844 C 65.679688 28.597656 65.679688 28.484375 65.679688 28.363281 C 65.75 27.738281 66.183594 27.808594 66.703125 27.808594 Z M 66.703125 27.808594 "/>
<path style=" stroke:none;fill-rule:nonzero;fill:rgb(45.490196%,46.666667%,48.235294%);fill-opacity:1;" d="M 125.648438 27.804688 C 125.765625 27.804688 125.882812 27.800781 126.003906 27.800781 C 126.128906 27.800781 126.257812 27.800781 126.386719 27.800781 C 126.582031 27.796875 126.582031 27.796875 126.785156 27.796875 C 127.0625 27.796875 127.339844 27.796875 127.617188 27.796875 C 128.039062 27.796875 128.460938 27.789062 128.882812 27.785156 C 130.894531 27.777344 132.503906 27.863281 134.019531 29.308594 C 135.371094 30.726562 135.539062 32.796875 135.542969 34.667969 C 135.542969 34.816406 135.542969 34.816406 135.542969 34.972656 C 135.546875 35.183594 135.546875 35.394531 135.546875 35.605469 C 135.546875 35.929688 135.546875 36.25 135.550781 36.570312 C 135.550781 36.777344 135.550781 36.984375 135.550781 37.191406 C 135.550781 37.285156 135.554688 37.382812 135.554688 37.476562 C 135.550781 38.117188 135.441406 38.660156 135.273438 39.277344 C 135.273438 39.410156 135.273438 39.542969 135.273438 39.679688 C 135.273438 40.054688 135.191406 40.195312 135.027344 40.519531 C 135.007812 40.664062 134.988281 40.808594 134.972656 40.953125 C 134.898438 41.398438 134.820312 41.558594 134.527344 41.886719 C 134.445312 42.011719 134.363281 42.132812 134.28125 42.261719 C 134.058594 42.457031 133.824219 42.644531 133.59375 42.832031 C 133.53125 42.890625 133.472656 42.945312 133.410156 43.003906 C 133.410156 43.085938 133.410156 43.167969 133.410156 43.253906 C 133.226562 43.316406 133.226562 43.316406 133.039062 43.378906 C 132.957031 43.460938 132.875 43.542969 132.789062 43.628906 C 131.792969 43.980469 130.816406 44.050781 129.769531 44.035156 C 129.628906 44.035156 129.492188 44.035156 129.347656 44.035156 C 128.910156 44.03125 128.476562 44.027344 128.039062 44.023438 C 127.738281 44.019531 127.441406 44.019531 127.144531 44.019531 C 126.417969 44.015625 125.691406 44.007812 124.964844 44 C 124.808594 43.6875 124.824219 43.476562 124.824219 43.128906 C 124.824219 42.996094 124.820312 42.863281 124.820312 42.730469 C 124.820312 42.585938 124.820312 42.4375 124.820312 42.289062 C 124.820312 42.136719 124.820312 41.984375 124.820312 41.828125 C 124.820312 41.410156 124.820312 40.992188 124.820312 40.570312 C 124.820312 40.222656 124.820312 39.875 124.816406 39.523438 C 124.816406 38.703125 124.816406 37.878906 124.816406 37.054688 C 124.816406 36.203125 124.816406 35.355469 124.8125 34.503906 C 124.8125 33.773438 124.8125 33.046875 124.8125 32.316406 C 124.8125 31.882812 124.8125 31.445312 124.808594 31.007812 C 124.808594 30.523438 124.808594 30.039062 124.808594 29.550781 C 124.808594 29.335938 124.808594 29.335938 124.808594 29.113281 C 124.808594 28.914062 124.808594 28.914062 124.808594 28.714844 C 124.808594 28.597656 124.808594 28.484375 124.808594 28.363281 C 124.871094 27.820312 125.175781 27.808594 125.648438 27.804688 Z M 130.679688 27.964844 C 131.175781 28.089844 131.175781 28.089844 131.175781 28.089844 Z M 128.195312 30.578125 C 128.171875 30.925781 128.164062 31.261719 128.164062 31.609375 C 128.164062 31.714844 128.164062 31.820312 128.164062 31.933594 C 128.164062 32.285156 128.167969 32.640625 128.167969 32.992188 C 128.171875 33.238281 128.171875 33.484375 128.171875 33.726562 C 128.171875 34.375 128.175781 35.019531 128.175781 35.664062 C 128.179688 36.320312 128.179688 36.980469 128.179688 37.636719 C 128.183594 38.929688 128.1875 40.222656 128.195312 41.515625 C 128.570312 41.527344 128.945312 41.539062 129.320312 41.546875 C 129.425781 41.550781 129.53125 41.554688 129.636719 41.558594 C 130.386719 41.570312 130.8125 41.457031 131.421875 41.015625 C 132.40625 39.738281 132.207031 37.886719 132.199219 36.355469 C 132.199219 36 132.199219 35.644531 132.203125 35.289062 C 132.203125 34.027344 132.152344 32.816406 131.921875 31.570312 C 131.839844 31.570312 131.757812 31.570312 131.671875 31.570312 C 131.664062 31.5 131.65625 31.425781 131.648438 31.351562 C 131.476562 30.875 131.09375 30.660156 130.65625 30.4375 C 130.207031 30.296875 129.816406 30.292969 129.351562 30.296875 C 129.265625 30.296875 129.183594 30.292969 129.097656 30.292969 C 128.589844 30.28125 128.589844 30.28125 128.195312 30.578125 Z M 132.167969 32.9375 C 132.292969 33.3125 132.292969 33.3125 132.292969 33.3125 Z M 132.292969 34.429688 C 132.292969 35.496094 132.292969 36.5625 132.292969 37.660156 C 132.332031 37.660156 132.375 37.660156 132.417969 37.660156 C 132.417969 36.59375 132.417969 35.527344 132.417969 34.429688 C 132.375 34.429688 132.335938 34.429688 132.292969 34.429688 Z M 132.167969 38.78125 C 132.292969 39.027344 132.292969 39.027344 132.292969 39.027344 Z M 128.316406 41.636719 C 128.316406 41.679688 128.316406 41.71875 128.316406 41.761719 C 128.808594 41.761719 129.300781 41.761719 129.808594 41.761719 C 129.808594 41.722656 129.808594 41.679688 129.808594 41.636719 C 129.316406 41.636719 128.824219 41.636719 128.316406 41.636719 Z M 128.316406 41.636719 "/>
<path style=" stroke:none;fill-rule:nonzero;fill:rgb(88.235294%,18.039216%,23.529412%);fill-opacity:1;" d="M 90.8125 27.824219 C 90.9375 27.824219 91.066406 27.824219 91.195312 27.824219 C 91.398438 27.824219 91.398438 27.824219 91.605469 27.828125 C 91.738281 27.824219 91.871094 27.824219 92.007812 27.824219 C 92.199219 27.824219 92.199219 27.824219 92.394531 27.824219 C 92.511719 27.824219 92.628906 27.824219 92.75 27.824219 C 93.039062 27.84375 93.039062 27.84375 93.289062 27.964844 C 93.289062 29.933594 93.289062 31.902344 93.289062 33.933594 C 94.519531 33.933594 95.746094 33.933594 97.015625 33.933594 C 97.011719 33.511719 97.007812 33.09375 97.007812 32.664062 C 97.003906 32.257812 97.003906 31.855469 97 31.449219 C 97 31.167969 97 30.886719 96.996094 30.605469 C 96.992188 30.199219 96.992188 29.796875 96.992188 29.390625 C 96.988281 29.265625 96.988281 29.140625 96.988281 29.007812 C 96.988281 28.832031 96.988281 28.832031 96.988281 28.65625 C 96.984375 28.550781 96.984375 28.449219 96.984375 28.34375 C 97.015625 28.089844 97.015625 28.089844 97.261719 27.84375 C 97.550781 27.8125 97.550781 27.8125 97.902344 27.8125 C 98.03125 27.8125 98.15625 27.8125 98.289062 27.8125 C 98.421875 27.816406 98.554688 27.816406 98.691406 27.820312 C 98.824219 27.820312 98.957031 27.820312 99.09375 27.820312 C 100.085938 27.824219 100.085938 27.824219 100.367188 27.964844 C 100.367188 33.257812 100.367188 38.546875 100.367188 44 C 99.34375 44 98.320312 44 97.261719 44 C 97.222656 41.703125 97.179688 39.40625 97.140625 37.039062 C 95.292969 36.976562 95.292969 36.976562 93.414062 36.914062 C 93.371094 39.253906 93.332031 41.589844 93.289062 44 C 92.261719 44 91.238281 44 90.183594 44 C 90.164062 41.910156 90.144531 39.824219 90.128906 37.734375 C 90.121094 36.765625 90.109375 35.796875 90.101562 34.824219 C 90.09375 33.980469 90.085938 33.136719 90.082031 32.292969 C 90.078125 31.84375 90.074219 31.394531 90.070312 30.949219 C 90.0625 30.449219 90.058594 29.949219 90.054688 29.453125 C 90.054688 29.300781 90.050781 29.152344 90.050781 29 C 90.050781 28.863281 90.050781 28.730469 90.046875 28.589844 C 90.046875 28.472656 90.046875 28.351562 90.046875 28.230469 C 90.070312 27.71875 90.367188 27.824219 90.8125 27.824219 Z M 97.140625 28.089844 C 97.140625 30.058594 97.140625 32.027344 97.140625 34.054688 C 95.910156 34.054688 94.679688 34.054688 93.414062 34.054688 C 93.414062 34.097656 93.414062 34.136719 93.414062 34.179688 C 94.683594 34.179688 95.953125 34.179688 97.261719 34.179688 C 97.261719 32.171875 97.261719 30.160156 97.261719 28.089844 C 97.222656 28.089844 97.179688 28.089844 97.140625 28.089844 Z M 97.140625 28.089844 "/>
<path style=" stroke:none;fill-rule:nonzero;fill:rgb(87.843137%,18.039216%,23.529412%);fill-opacity:1;" d="M 54.550781 27.808594 C 54.742188 27.808594 54.742188 27.808594 54.9375 27.808594 C 55.070312 27.808594 55.203125 27.808594 55.339844 27.8125 C 55.539062 27.808594 55.539062 27.808594 55.742188 27.808594 C 55.871094 27.808594 55.996094 27.808594 56.128906 27.808594 C 56.246094 27.808594 56.359375 27.808594 56.480469 27.808594 C 56.769531 27.84375 56.769531 27.84375 57.015625 28.089844 C 57.042969 28.476562 57.050781 28.847656 57.050781 29.234375 C 57.050781 29.351562 57.050781 29.472656 57.050781 29.59375 C 57.054688 29.851562 57.054688 30.109375 57.054688 30.367188 C 57.054688 30.777344 57.058594 31.1875 57.058594 31.597656 C 57.066406 32.757812 57.070312 33.921875 57.074219 35.085938 C 57.074219 35.796875 57.078125 36.507812 57.082031 37.21875 C 57.085938 37.492188 57.085938 37.761719 57.085938 38.03125 C 57.085938 38.410156 57.089844 38.792969 57.089844 39.171875 C 57.089844 39.28125 57.089844 39.394531 57.089844 39.507812 C 57.097656 40.277344 57.210938 40.875 57.691406 41.5 C 58.226562 41.882812 59 41.835938 59.625 41.761719 C 60.140625 41.472656 60.328125 41.203125 60.496094 40.644531 C 60.53125 40.238281 60.53125 39.832031 60.53125 39.425781 C 60.53125 39.242188 60.53125 39.242188 60.53125 39.054688 C 60.535156 38.789062 60.535156 38.527344 60.535156 38.261719 C 60.539062 37.84375 60.539062 37.425781 60.542969 37.007812 C 60.550781 35.96875 60.554688 34.929688 60.558594 33.890625 C 60.5625 33.011719 60.566406 32.132812 60.574219 31.253906 C 60.574219 30.84375 60.578125 30.429688 60.578125 30.015625 C 60.578125 29.765625 60.582031 29.511719 60.582031 29.261719 C 60.582031 29.144531 60.582031 29.03125 60.582031 28.910156 C 60.582031 28.804688 60.585938 28.699219 60.585938 28.59375 C 60.585938 28.457031 60.585938 28.457031 60.585938 28.316406 C 60.617188 28.089844 60.617188 28.089844 60.867188 27.84375 C 61.152344 27.8125 61.152344 27.8125 61.507812 27.8125 C 61.632812 27.8125 61.761719 27.8125 61.890625 27.8125 C 62.027344 27.816406 62.160156 27.816406 62.296875 27.820312 C 62.429688 27.820312 62.5625 27.820312 62.699219 27.820312 C 63.6875 27.824219 63.6875 27.824219 63.972656 27.964844 C 63.980469 29.613281 63.988281 31.261719 63.992188 32.910156 C 63.992188 33.675781 63.996094 34.441406 64 35.203125 C 64.003906 35.945312 64.007812 36.683594 64.007812 37.421875 C 64.007812 37.703125 64.011719 37.984375 64.011719 38.265625 C 64.015625 38.660156 64.015625 39.058594 64.015625 39.453125 C 64.015625 39.566406 64.019531 39.683594 64.019531 39.800781 C 64.011719 41.160156 63.628906 42.203125 62.707031 43.207031 C 61.449219 44.425781 59.75 44.292969 58.121094 44.273438 C 56.738281 44.238281 55.917969 44.015625 54.910156 43.039062 C 54.285156 42.347656 54.285156 42.347656 54.285156 41.886719 C 54.203125 41.886719 54.121094 41.886719 54.035156 41.886719 C 54.019531 41.808594 54.003906 41.726562 53.984375 41.648438 C 53.964844 41.542969 53.941406 41.441406 53.917969 41.335938 C 53.898438 41.234375 53.875 41.128906 53.851562 41.023438 C 53.8125 40.769531 53.8125 40.769531 53.664062 40.644531 C 53.648438 40.253906 53.644531 39.871094 53.644531 39.480469 C 53.644531 39.359375 53.644531 39.238281 53.644531 39.113281 C 53.640625 38.707031 53.640625 38.300781 53.640625 37.894531 C 53.640625 37.613281 53.640625 37.332031 53.640625 37.050781 C 53.640625 36.464844 53.640625 35.875 53.640625 35.285156 C 53.640625 34.527344 53.636719 33.769531 53.636719 33.015625 C 53.632812 32.433594 53.632812 31.855469 53.632812 31.273438 C 53.632812 30.996094 53.632812 30.71875 53.632812 30.4375 C 53.632812 30.046875 53.632812 29.660156 53.632812 29.269531 C 53.632812 29.152344 53.632812 29.035156 53.628906 28.917969 C 53.628906 28.8125 53.632812 28.703125 53.632812 28.597656 C 53.632812 28.503906 53.632812 28.410156 53.632812 28.316406 C 53.707031 27.769531 54.097656 27.808594 54.550781 27.808594 Z M 60.742188 28.089844 C 60.742188 31.945312 60.742188 35.800781 60.742188 39.773438 C 60.785156 39.773438 60.824219 39.773438 60.867188 39.773438 C 60.867188 35.917969 60.867188 32.0625 60.867188 28.089844 C 60.828125 28.089844 60.785156 28.089844 60.742188 28.089844 Z M 60.742188 28.089844 "/>
<path style=" stroke:none;fill-rule:nonzero;fill:rgb(87.843137%,18.039216%,23.529412%);fill-opacity:1;" d="M 45.929688 27.777344 C 46.011719 27.773438 46.09375 27.773438 46.175781 27.773438 C 46.347656 27.773438 46.519531 27.773438 46.691406 27.777344 C 46.953125 27.78125 47.214844 27.777344 47.480469 27.773438 C 47.644531 27.773438 47.8125 27.773438 47.980469 27.777344 C 48.207031 27.777344 48.207031 27.777344 48.441406 27.777344 C 48.816406 27.84375 48.816406 27.84375 49.039062 28.023438 C 49.261719 28.484375 49.382812 28.953125 49.503906 29.445312 C 49.53125 29.554688 49.5625 29.664062 49.589844 29.777344 C 49.679688 30.128906 49.769531 30.480469 49.859375 30.832031 C 49.917969 31.0625 49.976562 31.292969 50.035156 31.519531 C 50.152344 31.976562 50.269531 32.433594 50.386719 32.886719 C 50.746094 34.296875 51.117188 35.707031 51.503906 37.109375 C 51.863281 38.425781 52.214844 39.742188 52.566406 41.058594 C 52.628906 41.300781 52.691406 41.542969 52.757812 41.78125 C 52.847656 42.121094 52.9375 42.464844 53.027344 42.804688 C 53.058594 42.910156 53.085938 43.015625 53.113281 43.121094 C 53.304688 43.847656 53.304688 43.847656 53.164062 44.125 C 52.101562 44.082031 51.035156 44.042969 49.9375 44 C 49.9375 43.917969 49.9375 43.835938 49.9375 43.75 C 49.855469 43.75 49.773438 43.75 49.6875 43.75 C 49.605469 43.421875 49.527344 43.089844 49.445312 42.757812 C 49.414062 42.617188 49.414062 42.617188 49.378906 42.476562 C 49.355469 42.386719 49.335938 42.292969 49.3125 42.199219 C 49.292969 42.113281 49.269531 42.03125 49.25 41.945312 C 49.167969 41.515625 49.121094 41.078125 49.066406 40.644531 C 47.039062 40.707031 47.039062 40.707031 44.96875 40.769531 C 44.761719 41.484375 44.761719 41.484375 44.589844 42.207031 C 44.558594 42.355469 44.558594 42.355469 44.527344 42.503906 C 44.484375 42.707031 44.441406 42.910156 44.398438 43.113281 C 44.234375 43.863281 44.234375 43.863281 44.097656 44 C 43.847656 44.011719 43.601562 44.011719 43.351562 44.011719 C 43.199219 44.011719 43.050781 44.011719 42.894531 44.011719 C 42.734375 44.011719 42.578125 44.007812 42.414062 44.007812 C 42.253906 44.007812 42.09375 44.007812 41.929688 44.007812 C 41.535156 44.003906 41.140625 44.003906 40.742188 44 C 40.804688 43.164062 40.9375 42.390625 41.167969 41.589844 C 41.195312 41.480469 41.226562 41.371094 41.257812 41.261719 C 41.320312 41.03125 41.386719 40.796875 41.449219 40.566406 C 41.589844 40.078125 41.722656 39.585938 41.859375 39.097656 C 41.925781 38.847656 41.996094 38.601562 42.066406 38.351562 C 42.339844 37.363281 42.605469 36.371094 42.867188 35.378906 C 42.933594 35.128906 43 34.878906 43.066406 34.628906 C 43.289062 33.785156 43.507812 32.945312 43.722656 32.101562 C 43.835938 31.664062 43.949219 31.226562 44.0625 30.789062 C 44.117188 30.574219 44.171875 30.363281 44.222656 30.152344 C 44.296875 29.859375 44.375 29.566406 44.449219 29.273438 C 44.484375 29.140625 44.484375 29.140625 44.515625 29.007812 C 44.761719 28.078125 44.941406 27.78125 45.929688 27.777344 Z M 44.59375 29.210938 C 44.71875 29.457031 44.71875 29.457031 44.71875 29.457031 Z M 46.832031 31.199219 C 46.816406 31.28125 46.804688 31.363281 46.792969 31.449219 C 46.660156 32.3125 46.480469 33.15625 46.277344 34.003906 C 45.972656 35.257812 45.71875 36.519531 45.464844 37.785156 C 46.40625 37.785156 47.351562 37.785156 48.320312 37.785156 C 48.238281 37.027344 48.136719 36.316406 47.972656 35.578125 C 47.949219 35.480469 47.929688 35.378906 47.90625 35.277344 C 47.839844 34.96875 47.769531 34.65625 47.699219 34.34375 C 47.632812 34.03125 47.5625 33.71875 47.492188 33.40625 C 47.453125 33.210938 47.410156 33.019531 47.367188 32.824219 C 47.277344 32.429688 47.199219 32.039062 47.140625 31.636719 C 47.121094 31.535156 47.101562 31.429688 47.078125 31.320312 C 46.996094 31.28125 46.914062 31.238281 46.832031 31.199219 Z M 47.328125 32.441406 C 47.453125 32.6875 47.453125 32.6875 47.453125 32.6875 Z M 47.699219 34.179688 C 47.824219 34.429688 47.824219 34.429688 47.824219 34.429688 Z M 42.980469 35.300781 C 43.105469 35.546875 43.105469 35.546875 43.105469 35.546875 Z M 42.605469 36.667969 C 42.730469 36.914062 42.730469 36.914062 42.730469 36.914062 Z M 48.445312 37.660156 C 48.445312 37.742188 48.445312 37.824219 48.445312 37.910156 C 47.503906 37.910156 46.558594 37.910156 45.589844 37.910156 C 45.589844 37.949219 45.589844 37.992188 45.589844 38.035156 C 46.570312 38.035156 47.554688 38.035156 48.570312 38.035156 C 48.527344 37.910156 48.488281 37.789062 48.445312 37.660156 Z M 40.992188 42.757812 C 41.117188 43.003906 41.117188 43.003906 41.117188 43.003906 Z M 40.992188 42.757812 "/>
<path style=" stroke:none;fill-rule:nonzero;fill:rgb(87.843137%,18.039216%,23.529412%);fill-opacity:1;" d="M 149.1875 24.734375 C 149.308594 24.734375 149.433594 24.734375 149.558594 24.734375 C 150.226562 26.160156 150.785156 27.589844 151.222656 29.101562 C 151.28125 29.304688 151.28125 29.304688 151.339844 29.511719 C 151.949219 31.691406 152.113281 33.816406 152.097656 36.070312 C 152.097656 36.195312 152.097656 36.324219 152.097656 36.457031 C 152.085938 38.355469 152.015625 40.164062 151.546875 42.011719 C 151.515625 42.136719 151.488281 42.261719 151.457031 42.390625 C 150.6875 45.554688 149.414062 48.59375 147.449219 51.210938 C 147.320312 51.382812 147.320312 51.382812 147.195312 51.5625 C 146.511719 52.5 145.765625 53.355469 144.964844 54.191406 C 144.894531 54.265625 144.824219 54.339844 144.753906 54.414062 C 143.59375 55.640625 142.359375 56.691406 140.988281 57.671875 C 140.914062 57.726562 140.835938 57.785156 140.757812 57.839844 C 135.449219 61.691406 128.367188 63.007812 121.9375 62.066406 C 121.621094 62.011719 121.304688 61.957031 120.988281 61.898438 C 120.847656 61.871094 120.847656 61.871094 120.707031 61.847656 C 116.117188 60.953125 112.046875 58.761719 108.566406 55.683594 C 108.46875 55.597656 108.46875 55.597656 108.371094 55.511719 C 106.066406 53.472656 104.164062 51.03125 102.714844 48.320312 C 102.664062 48.230469 102.617188 48.136719 102.566406 48.046875 C 102.230469 47.402344 102.230469 47.402344 102.230469 46.984375 C 102.40625 46.96875 102.582031 46.960938 102.761719 46.953125 C 102.859375 46.945312 102.957031 46.941406 103.058594 46.933594 C 103.46875 47.003906 103.585938 47.15625 103.847656 47.480469 C 104.019531 47.777344 104.183594 48.070312 104.34375 48.375 C 107.066406 53.363281 111.265625 56.738281 116.394531 59.039062 C 116.472656 59.074219 116.550781 59.113281 116.636719 59.148438 C 117.316406 59.457031 117.964844 59.6875 118.695312 59.84375 C 119.007812 59.910156 119.320312 59.984375 119.632812 60.0625 C 119.746094 60.085938 119.855469 60.113281 119.96875 60.140625 C 120.191406 60.191406 120.410156 60.246094 120.632812 60.300781 C 122.398438 60.714844 124.171875 60.828125 125.980469 60.820312 C 126.074219 60.816406 126.167969 60.816406 126.265625 60.816406 C 131.242188 60.796875 136.1875 59.375 140.242188 56.429688 C 140.433594 56.292969 140.433594 56.292969 140.625 56.152344 C 141.734375 55.335938 142.734375 54.40625 143.722656 53.445312 C 143.796875 53.375 143.871094 53.300781 143.945312 53.226562 C 144.417969 52.765625 144.847656 52.289062 145.25 51.769531 C 145.308594 51.691406 145.367188 51.617188 145.425781 51.539062 C 147.917969 48.28125 149.53125 44.671875 150.304688 40.644531 C 150.347656 40.425781 150.347656 40.425781 150.394531 40.199219 C 150.796875 37.820312 150.710938 35.390625 150.460938 33.003906 C 150.40625 32.460938 150.378906 31.914062 150.347656 31.371094 C 150.300781 31.058594 150.203125 30.855469 150.054688 30.578125 C 150.011719 30.328125 149.996094 30.082031 149.976562 29.832031 C 149.925781 29.542969 149.816406 29.34375 149.683594 29.085938 C 149.597656 28.84375 149.515625 28.597656 149.433594 28.355469 C 149.394531 28.230469 149.351562 28.105469 149.3125 27.976562 C 149.269531 27.847656 149.230469 27.722656 149.1875 27.59375 C 149.144531 27.464844 149.101562 27.335938 149.054688 27.203125 C 149.015625 27.085938 148.976562 26.96875 148.9375 26.847656 C 148.894531 26.726562 148.894531 26.726562 148.847656 26.605469 C 148.796875 26.214844 148.898438 25.890625 148.992188 25.511719 C 149.027344 25.367188 149.0625 25.21875 149.101562 25.070312 C 149.144531 24.902344 149.144531 24.902344 149.1875 24.734375 Z M 149.1875 24.984375 C 149.3125 25.355469 149.3125 25.355469 149.3125 25.355469 Z M 150.429688 31.570312 C 150.554688 31.820312 150.554688 31.820312 150.554688 31.820312 Z M 150.554688 32.441406 C 150.675781 32.6875 150.675781 32.6875 150.675781 32.6875 Z M 150.675781 33.3125 C 150.800781 33.683594 150.800781 33.683594 150.800781 33.683594 Z M 150.800781 34.554688 C 150.800781 34.921875 150.800781 35.292969 150.800781 35.671875 C 150.84375 35.671875 150.882812 35.671875 150.925781 35.671875 C 150.925781 35.304688 150.925781 34.933594 150.925781 34.554688 C 150.886719 34.554688 150.84375 34.554688 150.800781 34.554688 Z M 150.800781 36.789062 C 150.800781 37.160156 150.800781 37.527344 150.800781 37.910156 C 150.84375 37.910156 150.882812 37.910156 150.925781 37.910156 C 150.925781 37.539062 150.925781 37.171875 150.925781 36.789062 C 150.886719 36.789062 150.84375 36.789062 150.800781 36.789062 Z M 150.675781 38.902344 C 150.800781 39.152344 150.800781 39.152344 150.800781 39.152344 Z M 150.554688 39.773438 C 150.675781 40.023438 150.675781 40.023438 150.675781 40.023438 Z M 150.304688 41.140625 C 150.429688 41.390625 150.429688 41.390625 150.429688 41.390625 Z M 149.933594 42.757812 C 150.054688 43.003906 150.054688 43.003906 150.054688 43.003906 Z M 125.089844 61.027344 C 125.089844 61.070312 125.089844 61.109375 125.089844 61.152344 C 125.664062 61.152344 126.234375 61.152344 126.828125 61.152344 C 126.828125 61.113281 126.828125 61.070312 126.828125 61.027344 C 126.253906 61.027344 125.679688 61.027344 125.089844 61.027344 Z M 125.089844 61.027344 "/>
<path style=" stroke:none;fill-rule:nonzero;fill:rgb(45.490196%,46.666667%,48.235294%);fill-opacity:1;" d="M 116.097656 27.792969 C 116.339844 27.796875 116.339844 27.796875 116.589844 27.796875 C 116.757812 27.800781 116.929688 27.804688 117.097656 27.8125 C 117.269531 27.8125 117.441406 27.816406 117.613281 27.816406 C 118.035156 27.824219 118.457031 27.832031 118.878906 27.84375 C 118.878906 27.925781 118.878906 28.007812 118.878906 28.089844 C 118.960938 28.089844 119.042969 28.089844 119.125 28.089844 C 119.695312 29.820312 120.152344 31.574219 120.609375 33.335938 C 120.730469 33.800781 120.855469 34.269531 120.976562 34.738281 C 121.058594 35.0625 121.144531 35.382812 121.226562 35.703125 C 121.523438 36.832031 121.820312 37.957031 122.117188 39.085938 C 122.160156 39.238281 122.199219 39.390625 122.242188 39.546875 C 122.398438 40.140625 122.554688 40.730469 122.710938 41.320312 C 122.820312 41.726562 122.925781 42.128906 123.035156 42.535156 C 123.082031 42.714844 123.082031 42.714844 123.132812 42.898438 C 123.160156 43.007812 123.1875 43.117188 123.21875 43.230469 C 123.246094 43.324219 123.269531 43.421875 123.296875 43.519531 C 123.347656 43.75 123.347656 43.75 123.347656 44 C 122.285156 44 121.21875 44 120.121094 44 C 120.121094 43.875 120.121094 43.753906 120.121094 43.628906 C 120.039062 43.628906 119.957031 43.628906 119.871094 43.628906 C 119.625 42.65625 119.476562 41.78125 119.375 40.769531 C 117.222656 40.707031 117.222656 40.707031 115.027344 40.644531 C 114.902344 41.09375 114.78125 41.546875 114.652344 42.011719 C 114.613281 42.09375 114.570312 42.175781 114.53125 42.261719 C 114.507812 42.402344 114.488281 42.546875 114.46875 42.695312 C 114.40625 43.128906 114.40625 43.128906 114.28125 43.378906 C 114.28125 43.582031 114.28125 43.789062 114.28125 44 C 113.214844 44.042969 112.148438 44.082031 111.050781 44.125 C 110.941406 43.457031 110.925781 43.238281 111.089844 42.628906 C 111.125 42.488281 111.164062 42.34375 111.203125 42.199219 C 111.242188 42.050781 111.28125 41.90625 111.324219 41.753906 C 111.359375 41.613281 111.398438 41.46875 111.4375 41.320312 C 111.632812 40.601562 111.835938 39.882812 112.058594 39.171875 C 112.246094 38.570312 112.40625 37.972656 112.542969 37.359375 C 112.722656 36.570312 112.929688 35.796875 113.15625 35.023438 C 113.308594 34.472656 113.445312 33.917969 113.582031 33.363281 C 113.828125 32.355469 114.105469 31.355469 114.398438 30.359375 C 114.570312 29.769531 114.714844 29.191406 114.824219 28.589844 C 115.050781 27.859375 115.363281 27.78125 116.097656 27.792969 Z M 114.902344 28.835938 C 115.027344 29.085938 115.027344 29.085938 115.027344 29.085938 Z M 117.015625 31.074219 C 116.789062 31.570312 116.714844 32.027344 116.640625 32.566406 C 116.601562 32.695312 116.566406 32.828125 116.523438 32.960938 C 116.375 33.503906 116.285156 34.046875 116.203125 34.605469 C 116.144531 34.925781 116.144531 34.925781 116.019531 35.175781 C 116.003906 35.304688 115.984375 35.4375 115.964844 35.570312 C 115.894531 36.046875 115.894531 36.046875 115.765625 36.464844 C 115.601562 37.019531 115.601562 37.019531 115.648438 38.035156 C 116.671875 38.035156 117.699219 38.035156 118.753906 38.035156 C 118.710938 37.953125 118.671875 37.871094 118.628906 37.785156 C 118.503906 37.335938 118.410156 36.878906 118.3125 36.425781 C 118.277344 36.277344 118.242188 36.125 118.210938 35.972656 C 118.144531 35.609375 118.117188 35.292969 118.132812 34.925781 C 118.050781 34.925781 117.96875 34.925781 117.882812 34.925781 C 117.871094 34.777344 117.859375 34.628906 117.84375 34.476562 C 117.769531 33.800781 117.621094 33.144531 117.472656 32.480469 C 117.375 32.011719 117.308594 31.550781 117.261719 31.074219 C 117.179688 31.074219 117.097656 31.074219 117.015625 31.074219 Z M 116.144531 34.304688 C 116.269531 34.554688 116.269531 34.554688 116.269531 34.554688 Z M 116.144531 34.304688 "/>
<path style=" stroke:none;fill-rule:nonzero;fill:rgb(87.843137%,18.039216%,23.529412%);fill-opacity:1;" d="M 86.691406 28.363281 C 87.960938 29.449219 88.410156 30.546875 88.566406 32.191406 C 88.566406 32.5625 88.566406 32.929688 88.566406 33.3125 C 87.503906 33.3125 86.4375 33.3125 85.339844 33.3125 C 85.089844 32.191406 85.089844 32.191406 84.996094 31.769531 C 84.96875 31.648438 84.941406 31.527344 84.910156 31.398438 C 84.871094 31.214844 84.871094 31.214844 84.828125 31.023438 C 84.671875 30.570312 84.476562 30.402344 84.066406 30.171875 C 83.507812 30.019531 83.054688 30.128906 82.519531 30.328125 C 81.75 30.996094 81.617188 32.101562 81.488281 33.0625 C 81.453125 33.53125 81.449219 33.996094 81.449219 34.464844 C 81.449219 34.597656 81.449219 34.726562 81.449219 34.859375 C 81.449219 35.128906 81.449219 35.402344 81.449219 35.671875 C 81.449219 36.082031 81.445312 36.492188 81.441406 36.902344 C 81.378906 39.3125 81.378906 39.3125 82.234375 41.515625 C 82.78125 41.863281 83.46875 41.859375 84.097656 41.761719 C 84.453125 41.597656 84.574219 41.457031 84.839844 41.140625 C 85.109375 40.375 85.171875 39.613281 85.242188 38.808594 C 85.3125 38.058594 85.3125 38.058594 85.585938 37.785156 C 85.875 37.753906 85.875 37.753906 86.226562 37.757812 C 86.355469 37.757812 86.480469 37.757812 86.613281 37.757812 C 86.746094 37.757812 86.878906 37.761719 87.015625 37.761719 C 87.148438 37.761719 87.28125 37.761719 87.417969 37.761719 C 88.410156 37.769531 88.410156 37.769531 88.691406 37.910156 C 88.757812 39.71875 88.589844 41.570312 87.421875 43.027344 C 86.566406 43.910156 85.601562 44.242188 84.398438 44.289062 C 81.167969 44.339844 81.167969 44.339844 79.941406 43.355469 C 78.492188 41.925781 77.992188 40.027344 77.972656 38.035156 C 77.972656 37.921875 77.972656 37.808594 77.972656 37.691406 C 77.972656 37.570312 77.972656 37.445312 77.96875 37.320312 C 77.96875 37.0625 77.96875 36.804688 77.96875 36.546875 C 77.96875 36.15625 77.96875 35.769531 77.964844 35.382812 C 77.957031 33 78.074219 30.578125 79.75 28.710938 C 81.695312 27.253906 84.65625 26.871094 86.691406 28.363281 Z M 82.855469 27.59375 C 82.855469 27.632812 82.855469 27.675781 82.855469 27.71875 C 83.058594 27.71875 83.265625 27.71875 83.476562 27.71875 C 83.476562 27.675781 83.476562 27.636719 83.476562 27.59375 C 83.269531 27.59375 83.066406 27.59375 82.855469 27.59375 Z M 83.847656 27.59375 C 84.34375 27.71875 84.34375 27.71875 84.34375 27.71875 Z M 78.132812 33.1875 C 78.257812 33.683594 78.257812 33.683594 78.257812 33.683594 Z M 78.132812 38.53125 C 78.257812 39.027344 78.257812 39.027344 78.257812 39.027344 Z M 85.339844 39.277344 C 85.460938 39.648438 85.460938 39.648438 85.460938 39.648438 Z M 85.339844 39.277344 "/>
<path style=" stroke:none;fill-rule:nonzero;fill:rgb(45.490196%,46.666667%,48.235294%);fill-opacity:1;" d="M 103.0625 27.808594 C 103.183594 27.804688 103.300781 27.804688 103.425781 27.804688 C 103.558594 27.804688 103.6875 27.804688 103.824219 27.804688 C 103.957031 27.804688 104.09375 27.804688 104.234375 27.804688 C 104.519531 27.800781 104.804688 27.800781 105.089844 27.800781 C 105.527344 27.804688 105.960938 27.800781 106.398438 27.796875 C 106.675781 27.796875 106.953125 27.796875 107.230469 27.796875 C 107.363281 27.796875 107.492188 27.792969 107.625 27.792969 C 109.042969 27.800781 110.117188 28.230469 111.171875 29.183594 C 112.066406 30.113281 112.355469 31.214844 112.347656 32.484375 C 112.34375 32.679688 112.34375 32.679688 112.339844 32.875 C 112.339844 33.007812 112.339844 33.140625 112.339844 33.277344 C 112.328125 34.253906 112.328125 34.253906 112.046875 34.679688 C 112.023438 34.804688 112.003906 34.933594 111.984375 35.066406 C 111.960938 35.183594 111.941406 35.300781 111.921875 35.421875 C 111.796875 35.484375 111.796875 35.484375 111.671875 35.546875 C 111.632812 35.671875 111.589844 35.792969 111.546875 35.921875 C 111.382812 36.003906 111.21875 36.085938 111.050781 36.167969 C 110.925781 36.332031 110.800781 36.5 110.679688 36.667969 C 109.910156 37.179688 109.378906 37.433594 108.441406 37.414062 C 108.402344 37.453125 108.359375 37.496094 108.320312 37.535156 C 108.125 37.554688 107.933594 37.566406 107.742188 37.570312 C 107.625 37.578125 107.507812 37.582031 107.386719 37.585938 C 107.136719 37.59375 106.890625 37.601562 106.640625 37.613281 C 106.527344 37.617188 106.410156 37.621094 106.289062 37.625 C 106.179688 37.628906 106.074219 37.632812 105.960938 37.636719 C 105.710938 37.632812 105.710938 37.632812 105.585938 37.785156 C 105.570312 37.980469 105.5625 38.175781 105.558594 38.371094 C 105.558594 38.496094 105.554688 38.617188 105.554688 38.746094 C 105.550781 38.949219 105.550781 38.949219 105.546875 39.15625 C 105.542969 39.292969 105.542969 39.433594 105.539062 39.574219 C 105.53125 40.015625 105.523438 40.457031 105.515625 40.902344 C 105.511719 41.199219 105.503906 41.5 105.5 41.796875 C 105.488281 42.53125 105.472656 43.265625 105.460938 44 C 104.4375 44 103.410156 44 102.355469 44 C 102.199219 43.6875 102.214844 43.476562 102.214844 43.128906 C 102.214844 42.996094 102.214844 42.863281 102.214844 42.730469 C 102.214844 42.585938 102.214844 42.4375 102.214844 42.289062 C 102.214844 42.136719 102.214844 41.984375 102.210938 41.828125 C 102.210938 41.410156 102.210938 40.992188 102.210938 40.570312 C 102.210938 40.222656 102.210938 39.875 102.210938 39.523438 C 102.210938 38.703125 102.207031 37.878906 102.210938 37.054688 C 102.210938 36.203125 102.207031 35.355469 102.207031 34.503906 C 102.203125 33.773438 102.203125 33.046875 102.203125 32.316406 C 102.203125 31.882812 102.203125 31.445312 102.203125 31.007812 C 102.199219 30.523438 102.199219 30.039062 102.203125 29.550781 C 102.199219 29.335938 102.199219 29.335938 102.199219 29.113281 C 102.199219 28.914062 102.199219 28.914062 102.203125 28.714844 C 102.203125 28.597656 102.203125 28.484375 102.199219 28.363281 C 102.261719 27.8125 102.582031 27.808594 103.0625 27.808594 Z M 105.585938 30.453125 C 105.585938 32.011719 105.585938 33.570312 105.585938 35.175781 C 107.238281 35.175781 107.238281 35.175781 108.691406 34.679688 C 108.886719 34.398438 108.886719 34.398438 108.941406 34.054688 C 108.964844 33.941406 108.992188 33.824219 109.015625 33.707031 C 109.121094 32.816406 109.109375 31.929688 108.816406 31.074219 C 108.347656 30.566406 107.824219 30.34375 107.140625 30.300781 C 106.988281 30.300781 106.835938 30.300781 106.679688 30.304688 C 106.453125 30.304688 106.453125 30.304688 106.21875 30.308594 C 105.84375 30.300781 105.84375 30.300781 105.585938 30.453125 Z M 109.0625 32.066406 C 109.1875 32.316406 109.1875 32.316406 109.1875 32.316406 Z M 105.710938 35.175781 C 105.710938 35.214844 105.710938 35.257812 105.710938 35.300781 C 106.242188 35.300781 106.777344 35.300781 107.324219 35.300781 C 107.324219 35.257812 107.324219 35.21875 107.324219 35.175781 C 106.792969 35.175781 106.257812 35.175781 105.710938 35.175781 Z M 105.710938 35.175781 "/>
<path style=" stroke:none;fill-rule:nonzero;fill:rgb(88.235294%,18.039216%,23.529412%);fill-opacity:1;" d="M 31.710938 27.824219 C 31.84375 27.824219 31.976562 27.824219 32.113281 27.824219 C 32.324219 27.824219 32.324219 27.824219 32.539062 27.828125 C 32.746094 27.824219 32.746094 27.824219 32.960938 27.824219 C 33.160156 27.824219 33.160156 27.824219 33.363281 27.824219 C 33.546875 27.824219 33.546875 27.824219 33.734375 27.824219 C 34.035156 27.84375 34.035156 27.84375 34.285156 27.964844 C 34.324219 32.394531 34.367188 36.824219 34.410156 41.390625 C 36.253906 41.429688 38.097656 41.472656 40 41.515625 C 40 42.335938 40 43.15625 40 44 C 37.046875 44 34.09375 44 31.054688 44 C 31.019531 39.984375 31.019531 39.984375 31.003906 38.304688 C 30.996094 37.144531 30.984375 35.984375 30.972656 34.824219 C 30.964844 33.980469 30.960938 33.136719 30.953125 32.292969 C 30.949219 31.84375 30.945312 31.394531 30.941406 30.949219 C 30.933594 30.449219 30.929688 29.949219 30.929688 29.453125 C 30.925781 29.300781 30.925781 29.152344 30.921875 29 C 30.921875 28.863281 30.921875 28.730469 30.921875 28.589844 C 30.917969 28.472656 30.917969 28.351562 30.917969 28.230469 C 30.941406 27.710938 31.261719 27.824219 31.710938 27.824219 Z M 31.710938 27.824219 "/>
<path style=" stroke:none;fill-rule:nonzero;fill:rgb(87.843137%,18.039216%,23.529412%);fill-opacity:1;" d="M 125.886719 9.90625 C 126.019531 9.902344 126.019531 9.902344 126.15625 9.902344 C 127.441406 9.902344 128.683594 9.980469 129.957031 10.167969 C 130.09375 10.1875 130.230469 10.210938 130.375 10.230469 C 131.035156 10.339844 131.589844 10.464844 132.167969 10.8125 C 132.167969 10.894531 132.167969 10.976562 132.167969 11.0625 C 132.082031 11.097656 131.996094 11.132812 131.90625 11.167969 C 131.792969 11.210938 131.679688 11.257812 131.5625 11.304688 C 131.449219 11.347656 131.339844 11.390625 131.222656 11.4375 C 130.929688 11.554688 130.929688 11.554688 130.679688 11.683594 C 130.46875 11.675781 130.257812 11.660156 130.050781 11.636719 C 129.9375 11.625 129.824219 11.613281 129.710938 11.601562 C 129.417969 11.570312 129.125 11.535156 128.835938 11.496094 C 122.121094 10.753906 115.511719 12.816406 110.25 16.992188 C 107.480469 19.246094 105.4375 21.996094 103.722656 25.105469 C 103.273438 25.105469 102.820312 25.105469 102.355469 25.105469 C 102.605469 22.84375 105.144531 19.863281 106.753906 18.34375 C 106.976562 18.121094 107.175781 17.890625 107.378906 17.648438 C 107.820312 17.140625 108.296875 16.707031 108.816406 16.28125 C 108.941406 16.179688 109.0625 16.078125 109.191406 15.972656 C 113.917969 12.128906 119.789062 9.925781 125.886719 9.90625 Z M 123.96875 10.066406 C 123.96875 10.109375 123.96875 10.148438 123.96875 10.191406 C 124.175781 10.191406 124.378906 10.191406 124.589844 10.191406 C 124.589844 10.152344 124.589844 10.109375 124.589844 10.066406 C 124.386719 10.066406 124.179688 10.066406 123.96875 10.066406 Z M 127.449219 10.066406 C 127.449219 10.109375 127.449219 10.148438 127.449219 10.191406 C 127.652344 10.191406 127.859375 10.191406 128.070312 10.191406 C 128.070312 10.152344 128.070312 10.109375 128.070312 10.066406 C 127.863281 10.066406 127.660156 10.066406 127.449219 10.066406 Z M 127.449219 10.066406 "/>
<path style=" stroke:none;fill-rule:nonzero;fill:rgb(88.235294%,18.039216%,23.529412%);fill-opacity:1;" d="M 89.933594 28.089844 C 89.976562 28.089844 90.015625 28.089844 90.058594 28.089844 C 90.058594 33.257812 90.058594 38.425781 90.058594 43.75 C 90.019531 43.75 89.976562 43.75 89.933594 43.75 C 89.933594 38.582031 89.933594 33.414062 89.933594 28.089844 Z M 89.933594 28.089844 "/>
<path style=" stroke:none;fill-rule:nonzero;fill:rgb(88.235294%,18.039216%,23.529412%);fill-opacity:1;" d="M 30.804688 28.089844 C 30.847656 28.089844 30.886719 28.089844 30.929688 28.089844 C 30.929688 33.257812 30.929688 38.425781 30.929688 43.75 C 30.890625 43.75 30.847656 43.75 30.804688 43.75 C 30.804688 38.582031 30.804688 33.414062 30.804688 28.089844 Z M 30.804688 28.089844 "/>
<path style=" stroke:none;fill-rule:nonzero;fill:rgb(88.235294%,18.039216%,23.529412%);fill-opacity:1;" d="M 97.015625 37.039062 C 97.054688 37.039062 97.097656 37.039062 97.140625 37.039062 C 97.140625 39.253906 97.140625 41.46875 97.140625 43.75 C 97.097656 43.75 97.058594 43.75 97.015625 43.75 C 97.015625 41.535156 97.015625 39.320312 97.015625 37.039062 Z M 97.015625 37.039062 "/>
<path style=" stroke:none;fill-rule:nonzero;fill:rgb(88.235294%,18.039216%,23.529412%);fill-opacity:1;" d="M 34.410156 41.265625 C 36.171875 41.265625 37.933594 41.265625 39.75 41.265625 C 39.75 41.304688 39.75 41.347656 39.75 41.390625 C 37.988281 41.390625 36.226562 41.390625 34.410156 41.390625 C 34.410156 41.347656 34.410156 41.308594 34.410156 41.265625 Z M 34.410156 41.265625 "/>
<path style=" stroke:none;fill-rule:nonzero;fill:rgb(45.882353%,47.058824%,48.627451%);fill-opacity:1;" d="M 7.328125 33.558594 C 7.371094 33.558594 7.410156 33.558594 7.453125 33.558594 C 7.453125 34.339844 7.453125 35.117188 7.453125 35.921875 C 7.414062 35.921875 7.371094 35.921875 7.328125 35.921875 C 7.328125 35.140625 7.328125 34.363281 7.328125 33.558594 Z M 7.328125 33.558594 "/>
<path style=" stroke:none;fill-rule:nonzero;fill:rgb(20.392157%,20.784314%,21.568627%);fill-opacity:1;" d="M 134.03125 42.382812 C 134.03125 42.507812 134.03125 42.628906 134.03125 42.757812 C 133.785156 42.878906 133.785156 42.878906 133.535156 43.003906 C 133.699219 42.800781 133.863281 42.59375 134.03125 42.382812 Z M 134.03125 42.382812 "/>
<path style=" stroke:none;fill-rule:nonzero;fill:rgb(0%,0.392157%,0%);fill-opacity:1;" d="M 112.292969 32.316406 C 112.335938 32.316406 112.375 32.316406 112.417969 32.316406 C 112.417969 32.644531 112.417969 32.972656 112.417969 33.3125 C 112.378906 33.3125 112.335938 33.3125 112.292969 33.3125 C 112.292969 32.984375 112.292969 32.65625 112.292969 32.316406 Z M 112.292969 32.316406 "/>
<path style=" stroke:none;fill-rule:nonzero;fill:rgb(45.882353%,47.058824%,48.627451%);fill-opacity:1;" d="M 20.246094 41.761719 C 20.289062 41.761719 20.328125 41.761719 20.371094 41.761719 C 20.371094 42.050781 20.371094 42.335938 20.371094 42.632812 C 20.332031 42.632812 20.289062 42.632812 20.246094 42.632812 C 20.246094 42.34375 20.246094 42.058594 20.246094 41.761719 Z M 20.246094 41.761719 "/>
<path style=" stroke:none;fill-rule:nonzero;fill:rgb(45.882353%,47.058824%,48.627451%);fill-opacity:1;" d="M 20.246094 43.75 C 20.289062 43.75 20.328125 43.75 20.371094 43.75 C 20.371094 43.957031 20.371094 44.160156 20.371094 44.371094 C 20.332031 44.371094 20.289062 44.371094 20.246094 44.371094 C 20.246094 44.167969 20.246094 43.960938 20.246094 43.75 Z M 20.246094 43.75 "/>
<path style=" stroke:none;fill-rule:nonzero;fill:rgb(15.294118%,15.686275%,16.078431%);fill-opacity:1;" d="M 22.109375 43.875 C 22.152344 43.957031 22.191406 44.039062 22.234375 44.125 C 22.152344 44.082031 22.070312 44.042969 21.988281 44 C 22.027344 43.957031 22.070312 43.917969 22.109375 43.875 Z M 22.109375 43.875 "/>
<path style=" stroke:none;fill-rule:nonzero;fill:rgb(15.294118%,15.686275%,16.078431%);fill-opacity:1;" d="M 111.300781 35.921875 C 111.339844 36.003906 111.382812 36.085938 111.425781 36.167969 C 111.34375 36.128906 111.261719 36.085938 111.175781 36.046875 C 111.214844 36.003906 111.257812 35.964844 111.300781 35.921875 Z M 111.300781 35.921875 "/>
</g>
</svg>
